# xmcd
#
# Track frame offsets:
#	150
#	14023
#	25420
#	37313
#	59733
#	74325
#	88873
#	105835
#	120530
#	152465
#	172265
#	198453
#	205783
#	229850
#	255255
#	271363
#
# Disc length: 3889 seconds
#
# Revision: 2
# Processed by: cddbd v1.5.1PL2 Copyright (c) Steve Scherf et al.
# Submitted via: EasyCDDAExtractor 8.0.2.1
#
DISCID=e40f2f10
DTITLE=Motörhead - Jurahalle Neumarkt 01-03-91
DYEAR=1991
DGENRE=Hard Rock
TTITLE0=Dr. Rock
TTITLE1=I'll Be Your Sister
TTITLE2=Traitor
TTITLE3=No Voices In The Sky
TTITLE4=Metropolis
TTITLE5=The One To Sing The Blues
TTITLE6=I'm So Bad (Baby I Don't Care)
TTITLE7=Going To Brazil
TTITLE8=Just Can You Get The Power
TTITLE9=Angel City
TTITLE10=Love Me Forever
TTITLE11=Ramones
TTITLE12=Orgasmatron
TTITLE13=Killed By Death
TTITLE14=Bomber
TTITLE15=Ace Of Spades
EXTD=
EXTT0=
EXTT1=
EXTT2=
EXTT3=
EXTT4=
EXTT5=
EXTT6=
EXTT7=
EXTT8=
EXTT9=
EXTT10=
EXTT11=
EXTT12=
EXTT13=
EXTT14=
EXTT15=
PLAYORDER=
